<svg width="2241" height="1464" xmlns="http://www.w3.org/2000/svg" xmlns:xlink="http://www.w3.org/1999/xlink" overflow="hidden"><defs><clipPath id="clip0"><rect x="2631" y="2690" width="2241" height="1464"/></clipPath><clipPath id="clip1"><rect x="2631" y="2690" width="2239" height="1462"/></clipPath><clipPath id="clip2"><rect x="2631" y="2690" width="2239" height="1462"/></clipPath><clipPath id="clip3"><rect x="2797" y="2741" width="2021" height="1178"/></clipPath><clipPath id="clip4"><rect x="2631" y="2690" width="2239" height="1462"/></clipPath><clipPath id="clip5"><rect x="2797" y="2741" width="2021" height="1178"/></clipPath><clipPath id="clip6"><rect x="2631" y="2690" width="2239" height="1462"/></clipPath><clipPath id="clip7"><rect x="2631" y="2690" width="2239" height="1462"/></clipPath><clipPath id="clip8"><rect x="2631" y="2690" width="2239" height="1462"/></clipPath><clipPath id="clip9"><rect x="2631" y="2690" width="2239" height="1462"/></clipPath><clipPath id="clip10"><rect x="2631" y="2690" width="2239" height="1462"/></clipPath><clipPath id="clip11"><rect x="2631" y="2690" width="2239" height="1462"/></clipPath><clipPath id="clip12"><rect x="2631" y="2690" width="2239" height="1462"/></clipPath><clipPath id="clip13"><rect x="2631" y="2690" width="2239" height="1462"/></clipPath><clipPath id="clip14"><rect x="2631" y="2690" width="2239" height="1462"/></clipPath><clipPath id="clip15"><rect x="2631" y="2690" width="2239" height="1462"/></clipPath><clipPath id="clip16"><rect x="2631" y="2690" width="2239" height="1462"/></clipPath><clipPath id="clip17"><rect x="2631" y="2690" width="2239" height="1462"/></clipPath><clipPath id="clip18"><rect x="2631" y="2690" width="2239" height="1462"/></clipPath><clipPath id="clip19"><rect x="2631" y="2690" width="2239" height="1462"/></clipPath><clipPath id="clip20"><rect x="2631" y="2690" width="2239" height="1462"/></clipPath><clipPath id="clip21"><rect x="2631" y="2690" width="2239" height="1462"/></clipPath><clipPath id="clip22"><rect x="2631" y="2690" width="2239" height="1462"/></clipPath><clipPath id="clip23"><rect x="2631" y="2690" width="2239" height="1462"/></clipPath><clipPath id="clip24"><rect x="2631" y="2690" width="2239" height="1462"/></clipPath><clipPath id="clip25"><rect x="2631" y="2690" width="2239" height="1462"/></clipPath><clipPath id="clip26"><rect x="2631" y="2690" width="2239" height="1462"/></clipPath><clipPath id="clip27"><rect x="2631" y="2690" width="2239" height="1462"/></clipPath><clipPath id="clip28"><rect x="2631" y="2690" width="2239" height="1462"/></clipPath><clipPath id="clip29"><rect x="2631" y="2690" width="2239" height="1462"/></clipPath><clipPath id="clip30"><rect x="2631" y="2690" width="2239" height="1462"/></clipPath><clipPath id="clip31"><rect x="2631" y="2690" width="2239" height="1462"/></clipPath><clipPath id="clip32"><rect x="2631" y="2690" width="2239" height="1462"/></clipPath><clipPath id="clip33"><rect x="2631" y="2690" width="2239" height="1462"/></clipPath><clipPath id="clip34"><rect x="2631" y="2690" width="2239" height="1462"/></clipPath><clipPath id="clip35"><rect x="2631" y="2690" width="2239" height="1462"/></clipPath><clipPath id="clip36"><rect x="2631" y="2690" width="2239" height="1462"/></clipPath><clipPath id="clip37"><rect x="2631" y="2690" width="2239" height="1462"/></clipPath><clipPath id="clip38"><rect x="2631" y="2690" width="2239" height="1462"/></clipPath><clipPath id="clip39"><rect x="2631" y="2690" width="2239" height="1462"/></clipPath><clipPath id="clip40"><rect x="2631" y="2690" width="2239" height="1462"/></clipPath><clipPath id="clip41"><rect x="2631" y="2690" width="2239" height="1462"/></clipPath><clipPath id="clip42"><rect x="2631" y="2690" width="2239" height="1462"/></clipPath><clipPath id="clip43"><rect x="2631" y="2690" width="2239" height="1462"/></clipPath><clipPath id="clip44"><rect x="2631" y="2690" width="2239" height="1462"/></clipPath><clipPath id="clip45"><rect x="2631" y="2690" width="2239" height="1462"/></clipPath><clipPath id="clip46"><rect x="2631" y="2690" width="2239" height="1462"/></clipPath><clipPath id="clip47"><rect x="2631" y="2690" width="2239" height="1462"/></clipPath><clipPath id="clip48"><rect x="2631" y="2690" width="2239" height="1462"/></clipPath><clipPath id="clip49"><rect x="2631" y="2690" width="2239" height="1462"/></clipPath><clipPath id="clip50"><rect x="2631" y="2690" width="2239" height="1462"/></clipPath><clipPath id="clip51"><rect x="2631" y="2690" width="2239" height="1462"/></clipPath><clipPath id="clip52"><rect x="2631" y="2690" width="2239" height="1462"/></clipPath><clipPath id="clip53"><rect x="2631" y="2690" width="2239" height="1462"/></clipPath></defs><g clip-path="url(#clip0)" transform="translate(-2631 -2690)"><rect x="2632" y="2691" width="2238" height="1461" fill="#FFFFFF"/><g clip-path="url(#clip1)"><path d="M2797.5 3798.62 4814.5 3798.62M2797.5 3681.62 4814.5 3681.62M2797.5 3563.62 4814.5 3563.62M2797.5 3446.61 4814.5 3446.61M2797.5 3328.61 4814.5 3328.61M2797.5 3211.61 4814.5 3211.61M2797.5 3093.6 4814.5 3093.6M2797.5 2976.6 4814.5 2976.6M2797.5 2859.59 4814.5 2859.59M2797.5 2741.5 4814.5 2741.5" stroke="#D9D9D9" stroke-width="3.4375" stroke-linejoin="round" stroke-miterlimit="10" fill="none"/></g><g clip-path="url(#clip2)"><path d="M2797.5 3916.5 4814.5 3916.5" stroke="#D9D9D9" stroke-width="3.4375" stroke-linejoin="round" stroke-miterlimit="10" fill="none" fill-rule="evenodd"/></g><g clip-path="url(#clip3)"><path d="M2814 2844 2847.09 3399.11 2881.09 3554.12 2915.1 3624.12 2948.1 3663.12 2982.1 3689.12 3016.1 3708.12 3049.1 3722.12 3083.1 3734.12 3116.1 3742.12 3150.1 3750.12 3184.1 3757.12 3217.11 3762.12 3251.11 3767.12 3285.11 3772.12 3318.11 3776.12 3352.11 3779.12 3385.11 3783.12 3419.11 3785.12 3453.11 3788.12 3486.11 3791.12 3520.12 3792.12 3554.12 3795.12 3587.12 3797.12 3621.12 3799.12 3654.12 3800.12 3688.12 3802.12 3722.12 3803.12 3755.12 3805.12 3789.12 3806.12 3823.13 3807.12 3856.13 3808.12 3890.13 3809.12 3924.13 3810.12 3957.13 3812.12 3991.13 3813.12 4024.13 3813.12 4058.13 3814.12 4092.13 3815.12 4125.14 3816.12 4159.14 3817.12 4193.14 3817.12 4226.14 3818.13 4260.14 3819.13 4293.14 3820.13 4327.14 3820.13 4361.14 3821.13 4394.14 3821.13 4428.15 3822.13 4462.15 3823.13 4495.15 3823.13 4529.15 3824.13 4562.15 3824.13 4596.15 3825.13 4630.15 3825.13 4663.15 3826.13 4697.15 3826.13 4731.16 3827.13 4764.16 3827.13 4798 3828" stroke="#F79646" stroke-width="10.3125" stroke-linecap="round" stroke-linejoin="round" stroke-miterlimit="10" fill="none"/></g><g clip-path="url(#clip4)"><path d="M2804.25 2834.38 2821.25 2834.38 2821.25 2851.37 2804.25 2851.37Z" stroke="#F79646" stroke-width="3.4375" stroke-linejoin="round" stroke-miterlimit="10" fill="#F79646"/><path d="M2838.25 3390.38 2855.25 3390.38 2855.25 3407.38 2838.25 3407.38Z" stroke="#F79646" stroke-width="3.4375" stroke-linejoin="round" stroke-miterlimit="10" fill="#F79646"/><path d="M2872.25 3544.38 2889.25 3544.38 2889.25 3561.38 2872.25 3561.38Z" stroke="#F79646" stroke-width="3.4375" stroke-linejoin="round" stroke-miterlimit="10" fill="#F79646"/><path d="M2905.25 3615.38 2922.25 3615.38 2922.25 3632.37 2905.25 3632.37Z" stroke="#F79646" stroke-width="3.4375" stroke-linejoin="round" stroke-miterlimit="10" fill="#F79646"/><path d="M2939.25 3653.38 2956.25 3653.38 2956.25 3670.38 2939.25 3670.38Z" stroke="#F79646" stroke-width="3.4375" stroke-linejoin="round" stroke-miterlimit="10" fill="#F79646"/><path d="M2972.25 3680.38 2989.25 3680.38 2989.25 3697.37 2972.25 3697.37Z" stroke="#F79646" stroke-width="3.4375" stroke-linejoin="round" stroke-miterlimit="10" fill="#F79646"/><path d="M3006.25 3699.38 3023.25 3699.38 3023.25 3716.37 3006.25 3716.37Z" stroke="#F79646" stroke-width="3.4375" stroke-linejoin="round" stroke-miterlimit="10" fill="#F79646"/><path d="M3040.25 3713.38 3057.25 3713.38 3057.25 3730.37 3040.25 3730.37Z" stroke="#F79646" stroke-width="3.4375" stroke-linejoin="round" stroke-miterlimit="10" fill="#F79646"/><path d="M3073.25 3724.38 3090.25 3724.38 3090.25 3741.37 3073.25 3741.37Z" stroke="#F79646" stroke-width="3.4375" stroke-linejoin="round" stroke-miterlimit="10" fill="#F79646"/><path d="M3107.25 3733.38 3124.25 3733.38 3124.25 3750.37 3107.25 3750.37Z" stroke="#F79646" stroke-width="3.4375" stroke-linejoin="round" stroke-miterlimit="10" fill="#F79646"/><path d="M3141.25 3740.38 3158.25 3740.38 3158.25 3757.38 3141.25 3757.38Z" stroke="#F79646" stroke-width="3.4375" stroke-linejoin="round" stroke-miterlimit="10" fill="#F79646"/><path d="M3174.25 3747.38 3191.25 3747.38 3191.25 3764.37 3174.25 3764.37Z" stroke="#F79646" stroke-width="3.4375" stroke-linejoin="round" stroke-miterlimit="10" fill="#F79646"/><path d="M3208.25 3753.38 3225.25 3753.38 3225.25 3770.38 3208.25 3770.38Z" stroke="#F79646" stroke-width="3.4375" stroke-linejoin="round" stroke-miterlimit="10" fill="#F79646"/><path d="M3242.25 3757.38 3259.25 3757.38 3259.25 3774.37 3242.25 3774.37Z" stroke="#F79646" stroke-width="3.4375" stroke-linejoin="round" stroke-miterlimit="10" fill="#F79646"/><path d="M3275.25 3763.38 3292.25 3763.38 3292.25 3780.38 3275.25 3780.38Z" stroke="#F79646" stroke-width="3.4375" stroke-linejoin="round" stroke-miterlimit="10" fill="#F79646"/><path d="M3309.25 3766.38 3326.25 3766.38 3326.25 3783.37 3309.25 3783.37Z" stroke="#F79646" stroke-width="3.4375" stroke-linejoin="round" stroke-miterlimit="10" fill="#F79646"/><path d="M3342.25 3769.38 3359.25 3769.38 3359.25 3786.37 3342.25 3786.37Z" stroke="#F79646" stroke-width="3.4375" stroke-linejoin="round" stroke-miterlimit="10" fill="#F79646"/><path d="M3376.25 3773.38 3393.25 3773.38 3393.25 3790.38 3376.25 3790.38Z" stroke="#F79646" stroke-width="3.4375" stroke-linejoin="round" stroke-miterlimit="10" fill="#F79646"/><path d="M3410.25 3776.38 3427.25 3776.38 3427.25 3793.37 3410.25 3793.37Z" stroke="#F79646" stroke-width="3.4375" stroke-linejoin="round" stroke-miterlimit="10" fill="#F79646"/><path d="M3443.25 3779.38 3460.25 3779.38 3460.25 3796.37 3443.25 3796.37Z" stroke="#F79646" stroke-width="3.4375" stroke-linejoin="round" stroke-miterlimit="10" fill="#F79646"/><path d="M3477.25 3781.38 3494.25 3781.38 3494.25 3798.37 3477.25 3798.37Z" stroke="#F79646" stroke-width="3.4375" stroke-linejoin="round" stroke-miterlimit="10" fill="#F79646"/><path d="M3511.25 3783.38 3528.25 3783.38 3528.25 3800.37 3511.25 3800.37Z" stroke="#F79646" stroke-width="3.4375" stroke-linejoin="round" stroke-miterlimit="10" fill="#F79646"/><path d="M3544.25 3785.38 3561.25 3785.38 3561.25 3802.38 3544.25 3802.38Z" stroke="#F79646" stroke-width="3.4375" stroke-linejoin="round" stroke-miterlimit="10" fill="#F79646"/><path d="M3578.25 3787.38 3595.25 3787.38 3595.25 3804.37 3578.25 3804.37Z" stroke="#F79646" stroke-width="3.4375" stroke-linejoin="round" stroke-miterlimit="10" fill="#F79646"/><path d="M3611.25 3789.38 3628.25 3789.38 3628.25 3806.37 3611.25 3806.37Z" stroke="#F79646" stroke-width="3.4375" stroke-linejoin="round" stroke-miterlimit="10" fill="#F79646"/><path d="M3645.25 3791.38 3662.25 3791.38 3662.25 3808.37 3645.25 3808.37Z" stroke="#F79646" stroke-width="3.4375" stroke-linejoin="round" stroke-miterlimit="10" fill="#F79646"/><path d="M3679.25 3792.38 3696.25 3792.38 3696.25 3809.37 3679.25 3809.37Z" stroke="#F79646" stroke-width="3.4375" stroke-linejoin="round" stroke-miterlimit="10" fill="#F79646"/><path d="M3712.25 3794.38 3729.25 3794.38 3729.25 3811.37 3712.25 3811.37Z" stroke="#F79646" stroke-width="3.4375" stroke-linejoin="round" stroke-miterlimit="10" fill="#F79646"/><path d="M3746.25 3795.38 3763.25 3795.38 3763.25 3812.38 3746.25 3812.38Z" stroke="#F79646" stroke-width="3.4375" stroke-linejoin="round" stroke-miterlimit="10" fill="#F79646"/><path d="M3780.25 3796.38 3797.25 3796.38 3797.25 3813.38 3780.25 3813.38Z" stroke="#F79646" stroke-width="3.4375" stroke-linejoin="round" stroke-miterlimit="10" fill="#F79646"/><path d="M3813.25 3798.38 3830.25 3798.38 3830.25 3815.37 3813.25 3815.37Z" stroke="#F79646" stroke-width="3.4375" stroke-linejoin="round" stroke-miterlimit="10" fill="#F79646"/><path d="M3847.25 3799.38 3864.25 3799.38 3864.25 3816.37 3847.25 3816.37Z" stroke="#F79646" stroke-width="3.4375" stroke-linejoin="round" stroke-miterlimit="10" fill="#F79646"/><path d="M3881.25 3800.38 3898.25 3800.38 3898.25 3817.37 3881.25 3817.37Z" stroke="#F79646" stroke-width="3.4375" stroke-linejoin="round" stroke-miterlimit="10" fill="#F79646"/><path d="M3914.25 3801.38 3931.25 3801.38 3931.25 3818.37 3914.25 3818.37Z" stroke="#F79646" stroke-width="3.4375" stroke-linejoin="round" stroke-miterlimit="10" fill="#F79646"/><path d="M3948.25 3802.38 3965.25 3802.38 3965.25 3819.37 3948.25 3819.37Z" stroke="#F79646" stroke-width="3.4375" stroke-linejoin="round" stroke-miterlimit="10" fill="#F79646"/><path d="M3981.25 3803.38 3998.25 3803.38 3998.25 3820.37 3981.25 3820.37Z" stroke="#F79646" stroke-width="3.4375" stroke-linejoin="round" stroke-miterlimit="10" fill="#F79646"/><path d="M4015.25 3804.38 4032.25 3804.38 4032.25 3821.37 4015.25 3821.37Z" stroke="#F79646" stroke-width="3.4375" stroke-linejoin="round" stroke-miterlimit="10" fill="#F79646"/><path d="M4049.25 3805.38 4066.25 3805.38 4066.25 3822.37 4049.25 3822.37Z" stroke="#F79646" stroke-width="3.4375" stroke-linejoin="round" stroke-miterlimit="10" fill="#F79646"/><path d="M4082.25 3806.38 4099.25 3806.38 4099.25 3823.38 4082.25 3823.38Z" stroke="#F79646" stroke-width="3.4375" stroke-linejoin="round" stroke-miterlimit="10" fill="#F79646"/><path d="M4116.25 3807.38 4133.25 3807.38 4133.25 3824.38 4116.25 3824.38Z" stroke="#F79646" stroke-width="3.4375" stroke-linejoin="round" stroke-miterlimit="10" fill="#F79646"/><path d="M4150.25 3807.38 4167.25 3807.38 4167.25 3824.38 4150.25 3824.38Z" stroke="#F79646" stroke-width="3.4375" stroke-linejoin="round" stroke-miterlimit="10" fill="#F79646"/><path d="M4183.25 3808.38 4200.25 3808.38 4200.25 3825.38 4183.25 3825.38Z" stroke="#F79646" stroke-width="3.4375" stroke-linejoin="round" stroke-miterlimit="10" fill="#F79646"/><path d="M4217.25 3809.38 4234.25 3809.38 4234.25 3826.37 4217.25 3826.37Z" stroke="#F79646" stroke-width="3.4375" stroke-linejoin="round" stroke-miterlimit="10" fill="#F79646"/><path d="M4250.25 3809.38 4267.25 3809.38 4267.25 3826.37 4250.25 3826.37Z" stroke="#F79646" stroke-width="3.4375" stroke-linejoin="round" stroke-miterlimit="10" fill="#F79646"/><path d="M4284.25 3810.38 4301.25 3810.38 4301.25 3827.37 4284.25 3827.37Z" stroke="#F79646" stroke-width="3.4375" stroke-linejoin="round" stroke-miterlimit="10" fill="#F79646"/><path d="M4318.25 3811.38 4335.25 3811.38 4335.25 3828.37 4318.25 3828.37Z" stroke="#F79646" stroke-width="3.4375" stroke-linejoin="round" stroke-miterlimit="10" fill="#F79646"/><path d="M4351.25 3812.38 4368.25 3812.38 4368.25 3829.37 4351.25 3829.37Z" stroke="#F79646" stroke-width="3.4375" stroke-linejoin="round" stroke-miterlimit="10" fill="#F79646"/><path d="M4385.25 3812.38 4402.25 3812.38 4402.25 3829.37 4385.25 3829.37Z" stroke="#F79646" stroke-width="3.4375" stroke-linejoin="round" stroke-miterlimit="10" fill="#F79646"/><path d="M4419.25 3813.38 4436.25 3813.38 4436.25 3830.37 4419.25 3830.37Z" stroke="#F79646" stroke-width="3.4375" stroke-linejoin="round" stroke-miterlimit="10" fill="#F79646"/><path d="M4452.25 3813.38 4469.25 3813.38 4469.25 3830.37 4452.25 3830.37Z" stroke="#F79646" stroke-width="3.4375" stroke-linejoin="round" stroke-miterlimit="10" fill="#F79646"/><path d="M4486.25 3814.38 4503.25 3814.38 4503.25 3831.37 4486.25 3831.37Z" stroke="#F79646" stroke-width="3.4375" stroke-linejoin="round" stroke-miterlimit="10" fill="#F79646"/><path d="M4520.25 3815.38 4537.25 3815.38 4537.25 3832.37 4520.25 3832.37Z" stroke="#F79646" stroke-width="3.4375" stroke-linejoin="round" stroke-miterlimit="10" fill="#F79646"/><path d="M4553.25 3815.38 4570.25 3815.38 4570.25 3832.37 4553.25 3832.37Z" stroke="#F79646" stroke-width="3.4375" stroke-linejoin="round" stroke-miterlimit="10" fill="#F79646"/><path d="M4587.25 3815.38 4604.25 3815.38 4604.25 3832.37 4587.25 3832.37Z" stroke="#F79646" stroke-width="3.4375" stroke-linejoin="round" stroke-miterlimit="10" fill="#F79646"/><path d="M4620.25 3816.38 4637.25 3816.38 4637.25 3833.37 4620.25 3833.37Z" stroke="#F79646" stroke-width="3.4375" stroke-linejoin="round" stroke-miterlimit="10" fill="#F79646"/><path d="M4654.25 3816.38 4671.25 3816.38 4671.25 3833.37 4654.25 3833.37Z" stroke="#F79646" stroke-width="3.4375" stroke-linejoin="round" stroke-miterlimit="10" fill="#F79646"/><path d="M4688.25 3817.38 4705.25 3817.38 4705.25 3834.38 4688.25 3834.38Z" stroke="#F79646" stroke-width="3.4375" stroke-linejoin="round" stroke-miterlimit="10" fill="#F79646"/><path d="M4721.25 3817.38 4738.25 3817.38 4738.25 3834.38 4721.25 3834.38Z" stroke="#F79646" stroke-width="3.4375" stroke-linejoin="round" stroke-miterlimit="10" fill="#F79646"/><path d="M4755.25 3818.38 4772.25 3818.38 4772.25 3835.38 4755.25 3835.38Z" stroke="#F79646" stroke-width="3.4375" stroke-linejoin="round" stroke-miterlimit="10" fill="#F79646"/><path d="M4789.25 3818.38 4806.25 3818.38 4806.25 3835.38 4789.25 3835.38Z" stroke="#F79646" stroke-width="3.4375" stroke-linejoin="round" stroke-miterlimit="10" fill="#F79646"/></g><g clip-path="url(#clip5)"><path d="M2814 3201 2847.09 3501.11 2881.09 3620.12 2915.1 3658.12 2948.1 3689.12 2982.1 3703.12 3016.1 3722.12 3049.1 3728.12 3083.1 3736.12 3116.1 3744.12 3150.1 3753.12 3184.1 3755.12 3217.11 3758.12 3251.11 3763.12 3285.11 3764.12 3318.11 3766.12 3352.11 3770.12 3385.11 3771.12 3419.11 3773.12 3453.11 3774.12 3486.11 3774.12 3520.12 3778.12 3554.12 3779.12 3587.12 3778.12 3621.12 3782.12 3654.12 3782.12 3688.12 3780.12 3722.12 3783.12 3755.12 3782.12 3789.12 3783.12 3823.13 3782.12 3856.13 3783.12 3890.13 3784.12 3924.13 3786.12 3957.13 3785.12 3991.13 3785.12 4024.13 3785.12 4058.13 3786.12 4092.13 3786.12 4125.14 3787.12 4159.14 3786.12 4193.14 3786.12 4226.14 3788.12 4260.14 3788.12 4293.14 3787.12 4327.14 3788.12 4361.14 3788.12 4394.14 3787.12 4428.15 3788.12 4462.15 3787.12 4495.15 3788.12 4529.15 3787.12 4562.15 3789.12 4596.15 3787.12 4630.15 3789 4663.15 3787.12 4697.15 3788.12 4731.16 3788.12 4764.16 3789.12 4798 3788.12" stroke="#4BACC6" stroke-width="10.3125" stroke-linecap="round" stroke-linejoin="round" stroke-miterlimit="10" fill="none"/></g><g clip-path="url(#clip6)"><path d="M2821.25 3199.88C2821.25 3204.57 2817.44 3208.38 2812.75 3208.38 2808.06 3208.38 2804.25 3204.57 2804.25 3199.88 2804.25 3195.18 2808.06 3191.38 2812.75 3191.38 2817.44 3191.38 2821.25 3195.18 2821.25 3199.88Z" stroke="#4BACC6" stroke-width="3.4375" stroke-linejoin="round" stroke-miterlimit="10" fill="#4BACC6"/><path d="M2855.25 3500.88C2855.25 3505.57 2851.44 3509.37 2846.75 3509.37 2842.06 3509.37 2838.25 3505.57 2838.25 3500.88 2838.25 3496.18 2842.06 3492.38 2846.75 3492.38 2851.44 3492.38 2855.25 3496.18 2855.25 3500.88Z" stroke="#4BACC6" stroke-width="3.4375" stroke-linejoin="round" stroke-miterlimit="10" fill="#4BACC6"/><path d="M2889.25 3619.87C2889.25 3624.57 2885.44 3628.37 2880.75 3628.37 2876.06 3628.37 2872.25 3624.57 2872.25 3619.87 2872.25 3615.18 2876.06 3611.38 2880.75 3611.38 2885.44 3611.38 2889.25 3615.18 2889.25 3619.87Z" stroke="#4BACC6" stroke-width="3.4375" stroke-linejoin="round" stroke-miterlimit="10" fill="#4BACC6"/><path d="M2922.25 3657.88C2922.25 3662.57 2918.44 3666.37 2913.75 3666.37 2909.06 3666.37 2905.25 3662.57 2905.25 3657.88 2905.25 3653.18 2909.06 3649.38 2913.75 3649.38 2918.44 3649.38 2922.25 3653.18 2922.25 3657.88Z" stroke="#4BACC6" stroke-width="3.4375" stroke-linejoin="round" stroke-miterlimit="10" fill="#4BACC6"/><path d="M2956.25 3688.88C2956.25 3693.57 2952.44 3697.37 2947.75 3697.37 2943.06 3697.37 2939.25 3693.57 2939.25 3688.88 2939.25 3684.18 2943.06 3680.38 2947.75 3680.38 2952.44 3680.38 2956.25 3684.18 2956.25 3688.88Z" stroke="#4BACC6" stroke-width="3.4375" stroke-linejoin="round" stroke-miterlimit="10" fill="#4BACC6"/><path d="M2989.25 3702.88C2989.25 3707.57 2985.44 3711.37 2980.75 3711.37 2976.06 3711.37 2972.25 3707.57 2972.25 3702.88 2972.25 3698.18 2976.06 3694.38 2980.75 3694.38 2985.44 3694.38 2989.25 3698.18 2989.25 3702.88Z" stroke="#4BACC6" stroke-width="3.4375" stroke-linejoin="round" stroke-miterlimit="10" fill="#4BACC6"/><path d="M3023.25 3720.88C3023.25 3725.57 3019.44 3729.37 3014.75 3729.37 3010.06 3729.37 3006.25 3725.57 3006.25 3720.88 3006.25 3716.18 3010.06 3712.38 3014.75 3712.38 3019.44 3712.38 3023.25 3716.18 3023.25 3720.88Z" stroke="#4BACC6" stroke-width="3.4375" stroke-linejoin="round" stroke-miterlimit="10" fill="#4BACC6"/><path d="M3057.25 3726.88C3057.25 3731.57 3053.44 3735.38 3048.75 3735.38 3044.06 3735.38 3040.25 3731.57 3040.25 3726.88 3040.25 3722.18 3044.06 3718.38 3048.75 3718.38 3053.44 3718.38 3057.25 3722.18 3057.25 3726.88Z" stroke="#4BACC6" stroke-width="3.4375" stroke-linejoin="round" stroke-miterlimit="10" fill="#4BACC6"/><path d="M3090.25 3735.88C3090.25 3740.57 3086.44 3744.37 3081.75 3744.37 3077.06 3744.37 3073.25 3740.57 3073.25 3735.88 3073.25 3731.18 3077.06 3727.38 3081.75 3727.38 3086.44 3727.38 3090.25 3731.18 3090.25 3735.88Z" stroke="#4BACC6" stroke-width="3.4375" stroke-linejoin="round" stroke-miterlimit="10" fill="#4BACC6"/><path d="M3124.25 3743.88C3124.25 3748.57 3120.44 3752.37 3115.75 3752.37 3111.06 3752.37 3107.25 3748.57 3107.25 3743.88 3107.25 3739.18 3111.06 3735.38 3115.75 3735.38 3120.44 3735.38 3124.25 3739.18 3124.25 3743.88Z" stroke="#4BACC6" stroke-width="3.4375" stroke-linejoin="round" stroke-miterlimit="10" fill="#4BACC6"/><path d="M3158.25 3751.87C3158.25 3756.57 3154.44 3760.37 3149.75 3760.37 3145.06 3760.37 3141.25 3756.57 3141.25 3751.87 3141.25 3747.18 3145.06 3743.38 3149.75 3743.38 3154.44 3743.38 3158.25 3747.18 3158.25 3751.87Z" stroke="#4BACC6" stroke-width="3.4375" stroke-linejoin="round" stroke-miterlimit="10" fill="#4BACC6"/><path d="M3191.25 3754.88C3191.25 3759.57 3187.44 3763.37 3182.75 3763.37 3178.06 3763.37 3174.25 3759.57 3174.25 3754.88 3174.25 3750.18 3178.06 3746.38 3182.75 3746.38 3187.44 3746.38 3191.25 3750.18 3191.25 3754.88Z" stroke="#4BACC6" stroke-width="3.4375" stroke-linejoin="round" stroke-miterlimit="10" fill="#4BACC6"/><path d="M3225.25 3757.88C3225.25 3762.57 3221.44 3766.37 3216.75 3766.37 3212.06 3766.37 3208.25 3762.57 3208.25 3757.88 3208.25 3753.18 3212.06 3749.38 3216.75 3749.38 3221.44 3749.38 3225.25 3753.18 3225.25 3757.88Z" stroke="#4BACC6" stroke-width="3.4375" stroke-linejoin="round" stroke-miterlimit="10" fill="#4BACC6"/><path d="M3259.25 3761.88C3259.25 3766.57 3255.44 3770.38 3250.75 3770.38 3246.06 3770.38 3242.25 3766.57 3242.25 3761.88 3242.25 3757.18 3246.06 3753.38 3250.75 3753.38 3255.44 3753.38 3259.25 3757.18 3259.25 3761.88Z" stroke="#4BACC6" stroke-width="3.4375" stroke-linejoin="round" stroke-miterlimit="10" fill="#4BACC6"/><path d="M3292.25 3763.88C3292.25 3768.57 3288.44 3772.37 3283.75 3772.37 3279.06 3772.37 3275.25 3768.57 3275.25 3763.88 3275.25 3759.18 3279.06 3755.38 3283.75 3755.38 3288.44 3755.38 3292.25 3759.18 3292.25 3763.88Z" stroke="#4BACC6" stroke-width="3.4375" stroke-linejoin="round" stroke-miterlimit="10" fill="#4BACC6"/><path d="M3326.25 3765.88C3326.25 3770.57 3322.44 3774.37 3317.75 3774.37 3313.06 3774.37 3309.25 3770.57 3309.25 3765.88 3309.25 3761.18 3313.06 3757.38 3317.75 3757.38 3322.44 3757.38 3326.25 3761.18 3326.25 3765.88Z" stroke="#4BACC6" stroke-width="3.4375" stroke-linejoin="round" stroke-miterlimit="10" fill="#4BACC6"/><path d="M3359.25 3768.88C3359.25 3773.57 3355.44 3777.37 3350.75 3777.37 3346.06 3777.37 3342.25 3773.57 3342.25 3768.88 3342.25 3764.18 3346.06 3760.38 3350.75 3760.38 3355.44 3760.38 3359.25 3764.18 3359.25 3768.88Z" stroke="#4BACC6" stroke-width="3.4375" stroke-linejoin="round" stroke-miterlimit="10" fill="#4BACC6"/><path d="M3393.25 3770.88C3393.25 3775.57 3389.44 3779.38 3384.75 3779.38 3380.06 3779.38 3376.25 3775.57 3376.25 3770.88 3376.25 3766.18 3380.06 3762.38 3384.75 3762.38 3389.44 3762.38 3393.25 3766.18 3393.25 3770.88Z" stroke="#4BACC6" stroke-width="3.4375" stroke-linejoin="round" stroke-miterlimit="10" fill="#4BACC6"/><path d="M3427.25 3771.88C3427.25 3776.57 3423.44 3780.38 3418.75 3780.38 3414.06 3780.38 3410.25 3776.57 3410.25 3771.88 3410.25 3767.18 3414.06 3763.38 3418.75 3763.38 3423.44 3763.38 3427.25 3767.18 3427.25 3771.88Z" stroke="#4BACC6" stroke-width="3.4375" stroke-linejoin="round" stroke-miterlimit="10" fill="#4BACC6"/><path d="M3460.25 3773.87C3460.25 3778.57 3456.44 3782.37 3451.75 3782.37 3447.06 3782.37 3443.25 3778.57 3443.25 3773.87 3443.25 3769.18 3447.06 3765.38 3451.75 3765.38 3456.44 3765.38 3460.25 3769.18 3460.25 3773.87Z" stroke="#4BACC6" stroke-width="3.4375" stroke-linejoin="round" stroke-miterlimit="10" fill="#4BACC6"/><path d="M3494.25 3773.87C3494.25 3778.57 3490.44 3782.37 3485.75 3782.37 3481.06 3782.37 3477.25 3778.57 3477.25 3773.87 3477.25 3769.18 3481.06 3765.38 3485.75 3765.38 3490.44 3765.38 3494.25 3769.18 3494.25 3773.87Z" stroke="#4BACC6" stroke-width="3.4375" stroke-linejoin="round" stroke-miterlimit="10" fill="#4BACC6"/><path d="M3528.25 3776.88C3528.25 3781.57 3524.44 3785.37 3519.75 3785.37 3515.06 3785.37 3511.25 3781.57 3511.25 3776.88 3511.25 3772.18 3515.06 3768.38 3519.75 3768.38 3524.44 3768.38 3528.25 3772.18 3528.25 3776.88Z" stroke="#4BACC6" stroke-width="3.4375" stroke-linejoin="round" stroke-miterlimit="10" fill="#4BACC6"/><path d="M3561.25 3777.88C3561.25 3782.57 3557.44 3786.37 3552.75 3786.37 3548.06 3786.37 3544.25 3782.57 3544.25 3777.88 3544.25 3773.18 3548.06 3769.38 3552.75 3769.38 3557.44 3769.38 3561.25 3773.18 3561.25 3777.88Z" stroke="#4BACC6" stroke-width="3.4375" stroke-linejoin="round" stroke-miterlimit="10" fill="#4BACC6"/><path d="M3595.25 3777.88C3595.25 3782.57 3591.44 3786.37 3586.75 3786.37 3582.06 3786.37 3578.25 3782.57 3578.25 3777.88 3578.25 3773.18 3582.06 3769.38 3586.75 3769.38 3591.44 3769.38 3595.25 3773.18 3595.25 3777.88Z" stroke="#4BACC6" stroke-width="3.4375" stroke-linejoin="round" stroke-miterlimit="10" fill="#4BACC6"/><path d="M3628.25 3780.88C3628.25 3785.57 3624.44 3789.37 3619.75 3789.37 3615.06 3789.37 3611.25 3785.57 3611.25 3780.88 3611.25 3776.18 3615.06 3772.38 3619.75 3772.38 3624.44 3772.38 3628.25 3776.18 3628.25 3780.88Z" stroke="#4BACC6" stroke-width="3.4375" stroke-linejoin="round" stroke-miterlimit="10" fill="#4BACC6"/><path d="M3662.25 3780.88C3662.25 3785.57 3658.44 3789.37 3653.75 3789.37 3649.06 3789.37 3645.25 3785.57 3645.25 3780.88 3645.25 3776.18 3649.06 3772.38 3653.75 3772.38 3658.44 3772.38 3662.25 3776.18 3662.25 3780.88Z" stroke="#4BACC6" stroke-width="3.4375" stroke-linejoin="round" stroke-miterlimit="10" fill="#4BACC6"/><path d="M3696.25 3779.88C3696.25 3784.57 3692.44 3788.37 3687.75 3788.37 3683.06 3788.37 3679.25 3784.57 3679.25 3779.88 3679.25 3775.18 3683.06 3771.38 3687.75 3771.38 3692.44 3771.38 3696.25 3775.18 3696.25 3779.88Z" stroke="#4BACC6" stroke-width="3.4375" stroke-linejoin="round" stroke-miterlimit="10" fill="#4BACC6"/><path d="M3729.25 3782.88C3729.25 3787.57 3725.44 3791.38 3720.75 3791.38 3716.06 3791.38 3712.25 3787.57 3712.25 3782.88 3712.25 3778.18 3716.06 3774.38 3720.75 3774.38 3725.44 3774.38 3729.25 3778.18 3729.25 3782.88Z" stroke="#4BACC6" stroke-width="3.4375" stroke-linejoin="round" stroke-miterlimit="10" fill="#4BACC6"/><path d="M3763.25 3781.88C3763.25 3786.57 3759.44 3790.38 3754.75 3790.38 3750.06 3790.38 3746.25 3786.57 3746.25 3781.88 3746.25 3777.18 3750.06 3773.38 3754.75 3773.38 3759.44 3773.38 3763.25 3777.18 3763.25 3781.88Z" stroke="#4BACC6" stroke-width="3.4375" stroke-linejoin="round" stroke-miterlimit="10" fill="#4BACC6"/><path d="M3797.25 3782.88C3797.25 3787.57 3793.44 3791.38 3788.75 3791.38 3784.06 3791.38 3780.25 3787.57 3780.25 3782.88 3780.25 3778.18 3784.06 3774.38 3788.75 3774.38 3793.44 3774.38 3797.25 3778.18 3797.25 3782.88Z" stroke="#4BACC6" stroke-width="3.4375" stroke-linejoin="round" stroke-miterlimit="10" fill="#4BACC6"/><path d="M3830.25 3781.88C3830.25 3786.57 3826.44 3790.38 3821.75 3790.38 3817.06 3790.38 3813.25 3786.57 3813.25 3781.88 3813.25 3777.18 3817.06 3773.38 3821.75 3773.38 3826.44 3773.38 3830.25 3777.18 3830.25 3781.88Z" stroke="#4BACC6" stroke-width="3.4375" stroke-linejoin="round" stroke-miterlimit="10" fill="#4BACC6"/><path d="M3864.25 3782.88C3864.25 3787.57 3860.44 3791.38 3855.75 3791.38 3851.06 3791.38 3847.25 3787.57 3847.25 3782.88 3847.25 3778.18 3851.06 3774.38 3855.75 3774.38 3860.44 3774.38 3864.25 3778.18 3864.25 3782.88Z" stroke="#4BACC6" stroke-width="3.4375" stroke-linejoin="round" stroke-miterlimit="10" fill="#4BACC6"/><path d="M3898.25 3782.88C3898.25 3787.57 3894.44 3791.38 3889.75 3791.38 3885.06 3791.38 3881.25 3787.57 3881.25 3782.88 3881.25 3778.18 3885.06 3774.38 3889.75 3774.38 3894.44 3774.38 3898.25 3778.18 3898.25 3782.88Z" stroke="#4BACC6" stroke-width="3.4375" stroke-linejoin="round" stroke-miterlimit="10" fill="#4BACC6"/><path d="M3931.25 3784.87C3931.25 3789.57 3927.44 3793.37 3922.75 3793.37 3918.06 3793.37 3914.25 3789.57 3914.25 3784.87 3914.25 3780.18 3918.06 3776.38 3922.75 3776.38 3927.44 3776.38 3931.25 3780.18 3931.25 3784.87Z" stroke="#4BACC6" stroke-width="3.4375" stroke-linejoin="round" stroke-miterlimit="10" fill="#4BACC6"/><path d="M3965.25 3784.87C3965.25 3789.57 3961.44 3793.37 3956.75 3793.37 3952.06 3793.37 3948.25 3789.57 3948.25 3784.87 3948.25 3780.18 3952.06 3776.38 3956.75 3776.38 3961.44 3776.38 3965.25 3780.18 3965.25 3784.87Z" stroke="#4BACC6" stroke-width="3.4375" stroke-linejoin="round" stroke-miterlimit="10" fill="#4BACC6"/><path d="M3998.25 3784.87C3998.25 3789.57 3994.44 3793.37 3989.75 3793.37 3985.06 3793.37 3981.25 3789.57 3981.25 3784.87 3981.25 3780.18 3985.06 3776.38 3989.75 3776.38 3994.44 3776.38 3998.25 3780.18 3998.25 3784.87Z" stroke="#4BACC6" stroke-width="3.4375" stroke-linejoin="round" stroke-miterlimit="10" fill="#4BACC6"/><path d="M4032.25 3784.87C4032.25 3789.57 4028.44 3793.37 4023.75 3793.37 4019.06 3793.37 4015.25 3789.57 4015.25 3784.87 4015.25 3780.18 4019.06 3776.38 4023.75 3776.38 4028.44 3776.38 4032.25 3780.18 4032.25 3784.87Z" stroke="#4BACC6" stroke-width="3.4375" stroke-linejoin="round" stroke-miterlimit="10" fill="#4BACC6"/><path d="M4066.25 3784.87C4066.25 3789.57 4062.44 3793.37 4057.75 3793.37 4053.06 3793.37 4049.25 3789.57 4049.25 3784.87 4049.25 3780.18 4053.06 3776.38 4057.75 3776.38 4062.44 3776.38 4066.25 3780.18 4066.25 3784.87Z" stroke="#4BACC6" stroke-width="3.4375" stroke-linejoin="round" stroke-miterlimit="10" fill="#4BACC6"/><path d="M4099.25 3785.88C4099.25 3790.57 4095.44 3794.37 4090.75 3794.37 4086.06 3794.37 4082.25 3790.57 4082.25 3785.88 4082.25 3781.18 4086.06 3777.38 4090.75 3777.38 4095.44 3777.38 4099.25 3781.18 4099.25 3785.88Z" stroke="#4BACC6" stroke-width="3.4375" stroke-linejoin="round" stroke-miterlimit="10" fill="#4BACC6"/><path d="M4133.25 3785.88C4133.25 3790.57 4129.44 3794.37 4124.75 3794.37 4120.06 3794.37 4116.25 3790.57 4116.25 3785.88 4116.25 3781.18 4120.06 3777.38 4124.75 3777.38 4129.44 3777.38 4133.25 3781.18 4133.25 3785.88Z" stroke="#4BACC6" stroke-width="3.4375" stroke-linejoin="round" stroke-miterlimit="10" fill="#4BACC6"/><path d="M4167.25 3785.88C4167.25 3790.57 4163.44 3794.37 4158.75 3794.37 4154.06 3794.37 4150.25 3790.57 4150.25 3785.88 4150.25 3781.18 4154.06 3777.38 4158.75 3777.38 4163.44 3777.38 4167.25 3781.18 4167.25 3785.88Z" stroke="#4BACC6" stroke-width="3.4375" stroke-linejoin="round" stroke-miterlimit="10" fill="#4BACC6"/><path d="M4200.25 3785.88C4200.25 3790.57 4196.44 3794.37 4191.75 3794.37 4187.06 3794.37 4183.25 3790.57 4183.25 3785.88 4183.25 3781.18 4187.06 3777.38 4191.75 3777.38 4196.44 3777.38 4200.25 3781.18 4200.25 3785.88Z" stroke="#4BACC6" stroke-width="3.4375" stroke-linejoin="round" stroke-miterlimit="10" fill="#4BACC6"/><path d="M4234.25 3787.88C4234.25 3792.57 4230.44 3796.37 4225.75 3796.37 4221.06 3796.37 4217.25 3792.57 4217.25 3787.88 4217.25 3783.18 4221.06 3779.38 4225.75 3779.38 4230.44 3779.38 4234.25 3783.18 4234.25 3787.88Z" stroke="#4BACC6" stroke-width="3.4375" stroke-linejoin="round" stroke-miterlimit="10" fill="#4BACC6"/><path d="M4267.25 3787.88C4267.25 3792.57 4263.44 3796.37 4258.75 3796.37 4254.06 3796.37 4250.25 3792.57 4250.25 3787.88 4250.25 3783.18 4254.06 3779.38 4258.75 3779.38 4263.44 3779.38 4267.25 3783.18 4267.25 3787.88Z" stroke="#4BACC6" stroke-width="3.4375" stroke-linejoin="round" stroke-miterlimit="10" fill="#4BACC6"/><path d="M4301.25 3785.88C4301.25 3790.57 4297.44 3794.37 4292.75 3794.37 4288.06 3794.37 4284.25 3790.57 4284.25 3785.88 4284.25 3781.18 4288.06 3777.38 4292.75 3777.38 4297.44 3777.38 4301.25 3781.18 4301.25 3785.88Z" stroke="#4BACC6" stroke-width="3.4375" stroke-linejoin="round" stroke-miterlimit="10" fill="#4BACC6"/><path d="M4335.25 3786.88C4335.25 3791.57 4331.44 3795.37 4326.75 3795.37 4322.06 3795.37 4318.25 3791.57 4318.25 3786.88 4318.25 3782.18 4322.06 3778.38 4326.75 3778.38 4331.44 3778.38 4335.25 3782.18 4335.25 3786.88Z" stroke="#4BACC6" stroke-width="3.4375" stroke-linejoin="round" stroke-miterlimit="10" fill="#4BACC6"/><path d="M4368.25 3786.88C4368.25 3791.57 4364.44 3795.37 4359.75 3795.37 4355.06 3795.37 4351.25 3791.57 4351.25 3786.88 4351.25 3782.18 4355.06 3778.38 4359.75 3778.38 4364.44 3778.38 4368.25 3782.18 4368.25 3786.88Z" stroke="#4BACC6" stroke-width="3.4375" stroke-linejoin="round" stroke-miterlimit="10" fill="#4BACC6"/><path d="M4402.25 3785.88C4402.25 3790.57 4398.44 3794.37 4393.75 3794.37 4389.06 3794.37 4385.25 3790.57 4385.25 3785.88 4385.25 3781.18 4389.06 3777.38 4393.75 3777.38 4398.44 3777.38 4402.25 3781.18 4402.25 3785.88Z" stroke="#4BACC6" stroke-width="3.4375" stroke-linejoin="round" stroke-miterlimit="10" fill="#4BACC6"/><path d="M4436.25 3786.88C4436.25 3791.57 4432.44 3795.37 4427.75 3795.37 4423.06 3795.37 4419.25 3791.57 4419.25 3786.88 4419.25 3782.18 4423.06 3778.38 4427.75 3778.38 4432.44 3778.38 4436.25 3782.18 4436.25 3786.88Z" stroke="#4BACC6" stroke-width="3.4375" stroke-linejoin="round" stroke-miterlimit="10" fill="#4BACC6"/><path d="M4469.25 3786.88C4469.25 3791.57 4465.44 3795.37 4460.75 3795.37 4456.06 3795.37 4452.25 3791.57 4452.25 3786.88 4452.25 3782.18 4456.06 3778.38 4460.75 3778.38 4465.44 3778.38 4469.25 3782.18 4469.25 3786.88Z" stroke="#4BACC6" stroke-width="3.4375" stroke-linejoin="round" stroke-miterlimit="10" fill="#4BACC6"/><path d="M4503.25 3786.88C4503.25 3791.57 4499.44 3795.37 4494.75 3795.37 4490.06 3795.37 4486.25 3791.57 4486.25 3786.88 4486.25 3782.18 4490.06 3778.38 4494.75 3778.38 4499.44 3778.38 4503.25 3782.18 4503.25 3786.88Z" stroke="#4BACC6" stroke-width="3.4375" stroke-linejoin="round" stroke-miterlimit="10" fill="#4BACC6"/><path d="M4537.25 3785.88C4537.25 3790.57 4533.44 3794.37 4528.75 3794.37 4524.06 3794.37 4520.25 3790.57 4520.25 3785.88 4520.25 3781.18 4524.06 3777.38 4528.75 3777.38 4533.44 3777.38 4537.25 3781.18 4537.25 3785.88Z" stroke="#4BACC6" stroke-width="3.4375" stroke-linejoin="round" stroke-miterlimit="10" fill="#4BACC6"/><path d="M4570.25 3787.88C4570.25 3792.57 4566.44 3796.37 4561.75 3796.37 4557.06 3796.37 4553.25 3792.57 4553.25 3787.88 4553.25 3783.18 4557.06 3779.38 4561.75 3779.38 4566.44 3779.38 4570.25 3783.18 4570.25 3787.88Z" stroke="#4BACC6" stroke-width="3.4375" stroke-linejoin="round" stroke-miterlimit="10" fill="#4BACC6"/><path d="M4604.25 3786.88C4604.25 3791.57 4600.44 3795.37 4595.75 3795.37 4591.06 3795.37 4587.25 3791.57 4587.25 3786.88 4587.25 3782.18 4591.06 3778.38 4595.75 3778.38 4600.44 3778.38 4604.25 3782.18 4604.25 3786.88Z" stroke="#4BACC6" stroke-width="3.4375" stroke-linejoin="round" stroke-miterlimit="10" fill="#4BACC6"/><path d="M4637.25 3788.88C4637.25 3793.57 4633.44 3797.37 4628.75 3797.37 4624.06 3797.37 4620.25 3793.57 4620.25 3788.88 4620.25 3784.18 4624.06 3780.38 4628.75 3780.38 4633.44 3780.38 4637.25 3784.18 4637.25 3788.88Z" stroke="#4BACC6" stroke-width="3.4375" stroke-linejoin="round" stroke-miterlimit="10" fill="#4BACC6"/><path d="M4671.25 3786.88C4671.25 3791.57 4667.44 3795.37 4662.75 3795.37 4658.06 3795.37 4654.25 3791.57 4654.25 3786.88 4654.25 3782.18 4658.06 3778.38 4662.75 3778.38 4667.44 3778.38 4671.25 3782.18 4671.25 3786.88Z" stroke="#4BACC6" stroke-width="3.4375" stroke-linejoin="round" stroke-miterlimit="10" fill="#4BACC6"/><path d="M4705.25 3787.88C4705.25 3792.57 4701.44 3796.37 4696.75 3796.37 4692.06 3796.37 4688.25 3792.57 4688.25 3787.88 4688.25 3783.18 4692.06 3779.38 4696.75 3779.38 4701.44 3779.38 4705.25 3783.18 4705.25 3787.88Z" stroke="#4BACC6" stroke-width="3.4375" stroke-linejoin="round" stroke-miterlimit="10" fill="#4BACC6"/><path d="M4738.25 3786.88C4738.25 3791.57 4734.44 3795.37 4729.75 3795.37 4725.06 3795.37 4721.25 3791.57 4721.25 3786.88 4721.25 3782.18 4725.06 3778.38 4729.75 3778.38 4734.44 3778.38 4738.25 3782.18 4738.25 3786.88Z" stroke="#4BACC6" stroke-width="3.4375" stroke-linejoin="round" stroke-miterlimit="10" fill="#4BACC6"/><path d="M4772.25 3787.88C4772.25 3792.57 4768.44 3796.37 4763.75 3796.37 4759.06 3796.37 4755.25 3792.57 4755.25 3787.88 4755.25 3783.18 4759.06 3779.38 4763.75 3779.38 4768.44 3779.38 4772.25 3783.18 4772.25 3787.88Z" stroke="#4BACC6" stroke-width="3.4375" stroke-linejoin="round" stroke-miterlimit="10" fill="#4BACC6"/><path d="M4806.25 3786.88C4806.25 3791.57 4802.44 3795.37 4797.75 3795.37 4793.06 3795.37 4789.25 3791.57 4789.25 3786.88 4789.25 3782.18 4793.06 3778.38 4797.75 3778.38 4802.44 3778.38 4806.25 3782.18 4806.25 3786.88Z" stroke="#4BACC6" stroke-width="3.4375" stroke-linejoin="round" stroke-miterlimit="10" fill="#4BACC6"/></g><g clip-path="url(#clip7)"><text fill="#595959" font-family="Calibri,Calibri_MSFontService,sans-serif" font-weight="400" font-size="46" transform="matrix(1 0 0 1 2731.25 3930)">0</text></g><g clip-path="url(#clip8)"><text fill="#595959" font-family="Calibri,Calibri_MSFontService,sans-serif" font-weight="400" font-size="46" transform="matrix(1 0 0 1 2684.78 3812)">100</text></g><g clip-path="url(#clip9)"><text fill="#595959" font-family="Calibri,Calibri_MSFontService,sans-serif" font-weight="400" font-size="46" transform="matrix(1 0 0 1 2684.78 3695)">200</text></g><g clip-path="url(#clip10)"><text fill="#595959" font-family="Calibri,Calibri_MSFontService,sans-serif" font-weight="400" font-size="46" transform="matrix(1 0 0 1 2684.78 3577)">300</text></g><g clip-path="url(#clip11)"><text fill="#595959" font-family="Calibri,Calibri_MSFontService,sans-serif" font-weight="400" font-size="46" transform="matrix(1 0 0 1 2684.78 3460)">400</text></g><g clip-path="url(#clip12)"><text fill="#595959" font-family="Calibri,Calibri_MSFontService,sans-serif" font-weight="400" font-size="46" transform="matrix(1 0 0 1 2684.78 3342)">500</text></g><g clip-path="url(#clip13)"><text fill="#595959" font-family="Calibri,Calibri_MSFontService,sans-serif" font-weight="400" font-size="46" transform="matrix(1 0 0 1 2684.78 3225)">600</text></g><g clip-path="url(#clip14)"><text fill="#595959" font-family="Calibri,Calibri_MSFontService,sans-serif" font-weight="400" font-size="46" transform="matrix(1 0 0 1 2684.78 3108)">700</text></g><g clip-path="url(#clip15)"><text fill="#595959" font-family="Calibri,Calibri_MSFontService,sans-serif" font-weight="400" font-size="46" transform="matrix(1 0 0 1 2684.78 2990)">800</text></g><g clip-path="url(#clip16)"><text fill="#595959" font-family="Calibri,Calibri_MSFontService,sans-serif" font-weight="400" font-size="46" transform="matrix(1 0 0 1 2684.78 2873)">900</text></g><g clip-path="url(#clip17)"><text fill="#595959" font-family="Calibri,Calibri_MSFontService,sans-serif" font-weight="400" font-size="46" transform="matrix(1 0 0 1 2661.54 2755)">1000</text></g><g clip-path="url(#clip18)"><text fill="#595959" font-family="Calibri,Calibri_MSFontService,sans-serif" font-weight="400" font-size="46" transform="matrix(1 0 0 1 2802.2 3989)">1</text></g><g clip-path="url(#clip19)"><text fill="#595959" font-family="Calibri,Calibri_MSFontService,sans-serif" font-weight="400" font-size="46" transform="matrix(1 0 0 1 2869.46 3989)">3</text></g><g clip-path="url(#clip20)"><text fill="#595959" font-family="Calibri,Calibri_MSFontService,sans-serif" font-weight="400" font-size="46" transform="matrix(1 0 0 1 2936.73 3989)">5</text></g><g clip-path="url(#clip21)"><text fill="#595959" font-family="Calibri,Calibri_MSFontService,sans-serif" font-weight="400" font-size="46" transform="matrix(1 0 0 1 3003.99 3989)">7</text></g><g clip-path="url(#clip22)"><text fill="#595959" font-family="Calibri,Calibri_MSFontService,sans-serif" font-weight="400" font-size="46" transform="matrix(1 0 0 1 3071.25 3989)">9</text></g><g clip-path="url(#clip23)"><text fill="#595959" font-family="Calibri,Calibri_MSFontService,sans-serif" font-weight="400" font-size="46" transform="matrix(1 0 0 1 3126.89 3989)">11</text></g><g clip-path="url(#clip24)"><text fill="#595959" font-family="Calibri,Calibri_MSFontService,sans-serif" font-weight="400" font-size="46" transform="matrix(1 0 0 1 3194.16 3989)">13</text></g><g clip-path="url(#clip25)"><text fill="#595959" font-family="Calibri,Calibri_MSFontService,sans-serif" font-weight="400" font-size="46" transform="matrix(1 0 0 1 3261.42 3989)">15</text></g><g clip-path="url(#clip26)"><text fill="#595959" font-family="Calibri,Calibri_MSFontService,sans-serif" font-weight="400" font-size="46" transform="matrix(1 0 0 1 3328.68 3989)">17</text></g><g clip-path="url(#clip27)"><text fill="#595959" font-family="Calibri,Calibri_MSFontService,sans-serif" font-weight="400" font-size="46" transform="matrix(1 0 0 1 3395.94 3989)">19</text></g><g clip-path="url(#clip28)"><text fill="#595959" font-family="Calibri,Calibri_MSFontService,sans-serif" font-weight="400" font-size="46" transform="matrix(1 0 0 1 3463.2 3989)">21</text></g><g clip-path="url(#clip29)"><text fill="#595959" font-family="Calibri,Calibri_MSFontService,sans-serif" font-weight="400" font-size="46" transform="matrix(1 0 0 1 3530.47 3989)">23</text></g><g clip-path="url(#clip30)"><text fill="#595959" font-family="Calibri,Calibri_MSFontService,sans-serif" font-weight="400" font-size="46" transform="matrix(1 0 0 1 3597.73 3989)">25</text></g><g clip-path="url(#clip31)"><text fill="#595959" font-family="Calibri,Calibri_MSFontService,sans-serif" font-weight="400" font-size="46" transform="matrix(1 0 0 1 3664.99 3989)">27</text></g><g clip-path="url(#clip32)"><text fill="#595959" font-family="Calibri,Calibri_MSFontService,sans-serif" font-weight="400" font-size="46" transform="matrix(1 0 0 1 3732.25 3989)">29</text></g><g clip-path="url(#clip33)"><text fill="#595959" font-family="Calibri,Calibri_MSFontService,sans-serif" font-weight="400" font-size="46" transform="matrix(1 0 0 1 3799.51 3989)">31</text></g><g clip-path="url(#clip34)"><text fill="#595959" font-family="Calibri,Calibri_MSFontService,sans-serif" font-weight="400" font-size="46" transform="matrix(1 0 0 1 3866.78 3989)">33</text></g><g clip-path="url(#clip35)"><text fill="#595959" font-family="Calibri,Calibri_MSFontService,sans-serif" font-weight="400" font-size="46" transform="matrix(1 0 0 1 3934.04 3989)">35</text></g><g clip-path="url(#clip36)"><text fill="#595959" font-family="Calibri,Calibri_MSFontService,sans-serif" font-weight="400" font-size="46" transform="matrix(1 0 0 1 4001.3 3989)">37</text></g><g clip-path="url(#clip37)"><text fill="#595959" font-family="Calibri,Calibri_MSFontService,sans-serif" font-weight="400" font-size="46" transform="matrix(1 0 0 1 4068.56 3989)">39</text></g><g clip-path="url(#clip38)"><text fill="#595959" font-family="Calibri,Calibri_MSFontService,sans-serif" font-weight="400" font-size="46" transform="matrix(1 0 0 1 4135.83 3989)">41</text></g><g clip-path="url(#clip39)"><text fill="#595959" font-family="Calibri,Calibri_MSFontService,sans-serif" font-weight="400" font-size="46" transform="matrix(1 0 0 1 4203.09 3989)">43</text></g><g clip-path="url(#clip40)"><text fill="#595959" font-family="Calibri,Calibri_MSFontService,sans-serif" font-weight="400" font-size="46" transform="matrix(1 0 0 1 4270.35 3989)">45</text></g><g clip-path="url(#clip41)"><text fill="#595959" font-family="Calibri,Calibri_MSFontService,sans-serif" font-weight="400" font-size="46" transform="matrix(1 0 0 1 4337.61 3989)">47</text></g><g clip-path="url(#clip42)"><text fill="#595959" font-family="Calibri,Calibri_MSFontService,sans-serif" font-weight="400" font-size="46" transform="matrix(1 0 0 1 4404.87 3989)">49</text></g><g clip-path="url(#clip43)"><text fill="#595959" font-family="Calibri,Calibri_MSFontService,sans-serif" font-weight="400" font-size="46" transform="matrix(1 0 0 1 4472.14 3989)">51</text></g><g clip-path="url(#clip44)"><text fill="#595959" font-family="Calibri,Calibri_MSFontService,sans-serif" font-weight="400" font-size="46" transform="matrix(1 0 0 1 4539.4 3989)">53</text></g><g clip-path="url(#clip45)"><text fill="#595959" font-family="Calibri,Calibri_MSFontService,sans-serif" font-weight="400" font-size="46" transform="matrix(1 0 0 1 4606.66 3989)">55</text></g><g clip-path="url(#clip46)"><text fill="#595959" font-family="Calibri,Calibri_MSFontService,sans-serif" font-weight="400" font-size="46" transform="matrix(1 0 0 1 4673.92 3989)">57</text></g><g clip-path="url(#clip47)"><text fill="#595959" font-family="Calibri,Calibri_MSFontService,sans-serif" font-weight="400" font-size="46" transform="matrix(1 0 0 1 4741.18 3989)">59</text></g><g clip-path="url(#clip48)"><path d="M3376 4078 3464 4078" stroke="#F79646" stroke-width="10.3125" stroke-linecap="round" stroke-linejoin="round" stroke-miterlimit="10" fill="none" fill-rule="evenodd"/></g><g clip-path="url(#clip49)"><path d="M3410.61 4069.63 3427.61 4069.63 3427.61 4086.63 3410.61 4086.63Z" stroke="#F79646" stroke-width="3.4375" stroke-linejoin="round" stroke-miterlimit="10" fill="#F79646"/></g><g clip-path="url(#clip50)"><text fill="#595959" font-family="Calibri,Calibri_MSFontService,sans-serif" font-weight="400" font-size="55" transform="matrix(1 0 0 1 3472.88 4093)">train PPL</text></g><g clip-path="url(#clip51)"><path d="M3732 4078 3820 4078" stroke="#4BACC6" stroke-width="10.3125" stroke-linecap="round" stroke-linejoin="round" stroke-miterlimit="10" fill="none" fill-rule="evenodd"/></g><g clip-path="url(#clip52)"><path d="M3784 4077.5C3784 4082.19 3780.19 4086 3775.5 4086 3770.81 4086 3767 4082.19 3767 4077.5 3767 4072.81 3770.81 4069 3775.5 4069 3780.19 4069 3784 4072.81 3784 4077.5Z" stroke="#4BACC6" stroke-width="3.4375" stroke-linejoin="round" stroke-miterlimit="10" fill="#4BACC6"/></g><g clip-path="url(#clip53)"><text fill="#595959" font-family="Calibri,Calibri_MSFontService,sans-serif" font-weight="400" font-size="55" transform="matrix(1 0 0 1 3829.49 4093)">validation PPL</text></g><rect x="2632.5" y="2691.5" width="2238" height="1461" stroke="#D9D9D9" stroke-width="3.4375" stroke-linejoin="round" stroke-miterlimit="10" fill="none"/></g></svg>